<svg width="64" height="64" viewBox="0 0 64 64" fill="none" xmlns="http://www.w3.org/2000/svg">
<circle cx="32" cy="32" r="31.5" stroke="white"/>
<path d="M19.8125 20.75C18.2598 20.75 17 22.0098 17 23.5625C17 24.4473 17.416 25.2793 18.125 25.8125L30.875 35.375C31.543 35.873 32.457 35.873 33.125 35.375L45.875 25.8125C46.584 25.2793 47 24.4473 47 23.5625C47 22.0098 45.7402 20.75 44.1875 20.75H19.8125ZM17 27.3125V39.5C17 41.5684 18.6816 43.25 20.75 43.25H43.25C45.3184 43.25 47 41.5684 47 39.5V27.3125L34.25 36.875C32.9141 37.877 31.0859 37.877 29.75 36.875L17 27.3125Z" fill="white"/>
</svg>
