<svg width="64" height="64" viewBox="0 0 64 64" fill="none" xmlns="http://www.w3.org/2000/svg">
<circle cx="32" cy="32" r="31.5" stroke="white"/>
<g clip-path="url(#clip0_137_3423)">
<path d="M26.6621 18.4415C26.2109 17.3517 25.0215 16.7716 23.8848 17.0821L18.7285 18.4884C17.709 18.7696 17 19.6954 17 20.7501C17 35.2462 28.7539 47.0001 43.25 47.0001C44.3047 47.0001 45.2305 46.2911 45.5117 45.2716L46.918 40.1153C47.2285 38.9786 46.6484 37.7892 45.5586 37.338L39.9336 34.9942C38.9785 34.5958 37.8711 34.8712 37.2207 35.6739L34.8535 38.5626C30.7285 36.6114 27.3887 33.2716 25.4375 29.1466L28.3262 26.7853C29.1289 26.129 29.4043 25.0274 29.0059 24.0724L26.6621 18.4474V18.4415Z" fill="white"/>
</g>
<defs>
<clipPath id="clip0_137_3423">
<rect width="30" height="30" fill="white" transform="translate(17 17)"/>
</clipPath>
</defs>
</svg>
